<svg xmlns="http://www.w3.org/2000/svg" width="1200" height="300" viewBox="0 0 1200 300" role="img" aria-labelledby="title desc">
<title id="title">CarDock — Symptoms meet vehicle data.</title><desc id="desc">LOCAL AI / AUTOMOTIVE DIAGNOSTICS</desc>
<defs><linearGradient id="bg" x2="1" y2="1"><stop stop-color="#101d30"/><stop offset="1" stop-color="#090f1c"/></linearGradient><pattern id="grid" width="40" height="40" patternUnits="userSpaceOnUse"><path d="M40 0H0V40" fill="none" stroke="#29415a" stroke-width="1" opacity=".26"/></pattern></defs>
<rect width="1200" height="300" rx="18" fill="url(#bg)"/><rect width="1200" height="300" rx="18" fill="url(#grid)"/>
<path d="M36 36h52M36 36v52M1164 264h-52M1164 264v-52" fill="none" stroke="#a5a2ff" stroke-width="2"/>
<rect x="64" y="60" width="6" height="18" rx="3" fill="#a5a2ff"/>
<text x="86" y="75" fill="#a5a2ff" font-family="Arial, sans-serif" font-size="14" font-weight="700" letter-spacing="3">LOCAL AI / AUTOMOTIVE DIAGNOSTICS</text>
<text x="64" y="153" fill="#f0f5ff" font-family="Arial, sans-serif" font-size="68" font-weight="700" letter-spacing="-2">CarDock</text>
<text x="66" y="199" fill="#b4c5da" font-family="Arial, sans-serif" font-size="23">Symptoms meet vehicle data.</text>
<text x="66" y="252" fill="#7893af" font-family="Arial, sans-serif" font-size="14" letter-spacing="1.6">PYTHON · FASTAPI · SQLITE · OLLAMA</text>
<g transform="translate(915 65)" fill="none" stroke-linecap="round"><circle cx="92" cy="83" r="75" stroke="#28415d" stroke-width="1"/><circle cx="92" cy="83" r="52" stroke="#28415d" stroke-width="1"/><path d="M8 125l45-35 39 10 44-53 45 18" stroke="#a5a2ff" stroke-width="3"/><path d="M8 57h38v41h43V33h47v94h45" stroke="#476785" stroke-width="2"/><g fill="#a5a2ff" stroke="#0c1727" stroke-width="5"><circle cx="8" cy="125" r="6"/><circle cx="53" cy="90" r="6"/><circle cx="92" cy="100" r="6"/><circle cx="136" cy="47" r="6"/><circle cx="181" cy="65" r="6"/></g></g>
</svg>
